# MagicaVoxel @ Ephtracy

# material
mtllib GrassSmallPatch1.mtl
usemtl palette

# normals
vn -1 0 0
vn 1 0 0
vn 0 0 1
vn 0 0 -1
vn 0 -1 0
vn 0 1 0

# texcoords
vt 0.970703 0.5
vt 0.974609 0.5
vt 0.978516 0.5

# verts
v -4 0 1
v -4 0 -0
v -4 3 1
v -4 3 -0
v -4 5 -0
v -4 5 -1
v -4 6 1
v -4 6 -0
v -4 8 -0
v -4 8 -1
v -3 0 3
v -3 0 2
v -3 0 -2
v -3 0 -3
v -3 1 3
v -3 1 2
v -3 2 -3
v -3 2 -4
v -3 3 -3
v -3 3 -4
v -3 4 -3
v -3 4 -4
v -3 5 -2
v -3 5 -3
v -3 8 -3
v -3 8 -4
v -2 0 -0
v -2 0 -1
v -2 1 1
v -2 1 -0
v -2 1 -1
v -2 3 1
v -2 3 -0
v -1 0 4
v -1 0 2
v -1 1 4
v -1 1 3
v -1 3 4
v -1 3 3
v -1 4 3
v -1 4 2
v -1 7 4
v -1 7 3
v -1 9 4
v -1 9 3
v 0 0 -2
v 0 0 -3
v 0 2 -2
v 0 2 -3
v 1 0 2
v 1 0 1
v 1 0 -1
v 1 0 -2
v 1 1 2
v 1 1 1
v 1 2 -1
v 1 2 -2
v 1 4 -2
v 1 4 -3
v 1 5 -1
v 1 5 -2
v 1 7 -2
v 1 7 -3
v 2 0 1
v 2 0 -0
v 2 0 -2
v 2 0 -3
v 2 1 2
v 2 1 1
v 2 1 -0
v 2 1 -2
v 2 1 -3
v 2 4 2
v 2 4 1
v 2 6 2
v 2 6 1
v 3 0 -0
v 3 0 -1
v 3 1 -0
v 3 1 -1
v 3 6 2
v 3 6 1
v 3 8 2
v 3 8 1
v -3 1 1
v -3 1 -0
v -3 3 1
v -3 3 -0
v -3 5 -0
v -3 5 -1
v -3 6 1
v -3 6 -0
v -3 8 -0
v -3 8 -1
v -2 0 3
v -2 0 2
v -2 1 3
v -2 1 2
v -2 1 -2
v -2 1 -3
v -2 2 -3
v -2 2 -4
v -2 3 -3
v -2 3 -4
v -2 4 -3
v -2 4 -4
v -2 5 -2
v -2 5 -3
v -2 8 -3
v -2 8 -4
v -1 0 -0
v -1 0 -1
v -1 0 -2
v -1 0 -3
v -1 1 1
v -1 1 -0
v -1 1 -1
v -1 1 -2
v -1 1 -3
v -1 3 1
v -1 3 -0
v 0 0 4
v 0 0 2
v 0 0 1
v 0 0 -0
v 0 1 4
v 0 1 3
v 0 1 1
v 0 1 -0
v 0 3 4
v 0 3 3
v 0 4 3
v 0 4 2
v 0 7 4
v 0 7 3
v 0 9 4
v 0 9 3
v 1 0 -2
v 1 0 -3
v 1 2 -2
v 1 2 -3
v 2 0 -1
v 2 0 -2
v 2 1 -2
v 2 2 -1
v 2 2 -2
v 2 4 -2
v 2 4 -3
v 2 5 -1
v 2 5 -2
v 2 7 -2
v 2 7 -3
v 3 0 2
v 3 0 -0
v 3 0 -2
v 3 0 -3
v 3 1 1
v 3 1 -0
v 3 1 -2
v 3 1 -3
v 3 4 2
v 3 4 1
v 3 5 2
v 3 5 1
v 4 0 -0
v 4 0 -1
v 4 1 -0
v 4 1 -1
v 4 5 2
v 4 5 1
v 4 8 2
v 4 8 1
v -1 0 4
v -1 1 4
v -1 3 4
v -1 7 4
v -1 9 4
v 0 0 4
v 0 1 4
v 0 3 4
v 0 7 4
v 0 9 4
v -3 0 3
v -3 1 3
v -2 0 3
v -2 1 3
v -1 1 3
v -1 3 3
v 0 1 3
v 0 3 3
v 1 0 2
v 1 1 2
v 2 1 2
v 2 4 2
v 2 6 2
v 3 0 2
v 3 4 2
v 3 5 2
v 3 6 2
v 3 8 2
v 4 5 2
v 4 8 2
v -4 0 1
v -4 3 1
v -4 6 1
v -3 1 1
v -3 3 1
v -3 6 1
v -2 1 1
v -2 3 1
v -1 1 1
v -1 3 1
v 0 0 1
v 0 1 1
v -4 6 -0
v -4 8 -0
v -3 6 -0
v -3 8 -0
v 3 0 -0
v 3 1 -0
v 4 0 -0
v 4 1 -0
v 1 0 -1
v 1 2 -1
v 1 5 -1
v 2 0 -1
v 2 2 -1
v 2 5 -1
v -3 0 -2
v -3 5 -2
v -2 1 -2
v -2 5 -2
v -1 0 -2
v -1 1 -2
v 0 0 -2
v 0 2 -2
v 1 0 -2
v 1 2 -2
v 1 5 -2
v 1 7 -2
v 2 0 -2
v 2 1 -2
v 2 5 -2
v 2 7 -2
v 3 0 -2
v 3 1 -2
v -3 5 -3
v -3 8 -3
v -2 5 -3
v -2 8 -3
v -1 4 3
v -1 7 3
v -1 9 3
v 0 4 3
v 0 7 3
v 0 9 3
v -3 0 2
v -3 1 2
v -2 0 2
v -2 1 2
v -1 0 2
v -1 4 2
v 0 0 2
v 0 4 2
v 1 0 1
v 1 1 1
v 2 0 1
v 2 1 1
v 2 4 1
v 2 6 1
v 3 1 1
v 3 4 1
v 3 5 1
v 3 6 1
v 3 8 1
v 4 5 1
v 4 8 1
v -4 0 -0
v -4 3 -0
v -4 5 -0
v -3 1 -0
v -3 3 -0
v -3 5 -0
v -2 0 -0
v -2 1 -0
v -2 3 -0
v -1 0 -0
v -1 1 -0
v -1 3 -0
v 0 0 -0
v 0 1 -0
v 2 0 -0
v 2 1 -0
v 3 0 -0
v 3 1 -0
v -4 5 -1
v -4 8 -1
v -3 5 -1
v -3 8 -1
v -2 0 -1
v -2 1 -1
v -1 0 -1
v -1 1 -1
v 3 0 -1
v 3 1 -1
v 4 0 -1
v 4 1 -1
v 1 0 -2
v 1 2 -2
v 1 4 -2
v 2 0 -2
v 2 1 -2
v 2 2 -2
v 2 4 -2
v -3 0 -3
v -3 2 -3
v -3 3 -3
v -3 4 -3
v -2 1 -3
v -2 2 -3
v -2 3 -3
v -2 4 -3
v -1 0 -3
v -1 1 -3
v 0 0 -3
v 0 2 -3
v 1 0 -3
v 1 2 -3
v 1 4 -3
v 1 7 -3
v 2 0 -3
v 2 1 -3
v 2 4 -3
v 2 7 -3
v 3 0 -3
v 3 1 -3
v -3 2 -4
v -3 3 -4
v -3 4 -4
v -3 8 -4
v -2 2 -4
v -2 3 -4
v -2 4 -4
v -2 8 -4
v -1 0 4
v 0 0 4
v -3 0 3
v -2 0 3
v -3 0 2
v -2 0 2
v -1 0 2
v 0 0 2
v 1 0 2
v 3 0 2
v -4 0 1
v 0 0 1
v 1 0 1
v 2 0 1
v -4 0 -0
v -2 0 -0
v -1 0 -0
v 0 0 -0
v 2 0 -0
v 3 0 -0
v 4 0 -0
v -2 0 -1
v -1 0 -1
v 1 0 -1
v 2 0 -1
v 3 0 -1
v 4 0 -1
v -3 0 -2
v -1 0 -2
v 0 0 -2
v 1 0 -2
v 2 0 -2
v 3 0 -2
v -3 0 -3
v -1 0 -3
v 0 0 -3
v 1 0 -3
v 2 0 -3
v 3 0 -3
v -3 2 -3
v -2 2 -3
v -3 2 -4
v -2 2 -4
v -1 3 4
v 0 3 4
v -1 3 3
v 0 3 3
v 1 4 -2
v 2 4 -2
v -3 4 -3
v -2 4 -3
v 1 4 -3
v 2 4 -3
v -3 4 -4
v -2 4 -4
v 3 5 2
v 4 5 2
v 3 5 1
v 4 5 1
v -4 5 -0
v -3 5 -0
v -4 5 -1
v -3 5 -1
v -1 1 4
v 0 1 4
v -3 1 3
v -2 1 3
v -1 1 3
v 0 1 3
v -3 1 2
v -2 1 2
v 1 1 2
v 2 1 2
v -3 1 1
v -2 1 1
v -1 1 1
v 0 1 1
v 1 1 1
v 2 1 1
v 3 1 1
v -3 1 -0
v -2 1 -0
v -1 1 -0
v 0 1 -0
v 2 1 -0
v 3 1 -0
v 4 1 -0
v -2 1 -1
v -1 1 -1
v 3 1 -1
v 4 1 -1
v -2 1 -2
v -1 1 -2
v 2 1 -2
v 3 1 -2
v -2 1 -3
v -1 1 -3
v 2 1 -3
v 3 1 -3
v 0 2 -2
v 1 2 -2
v 0 2 -3
v 1 2 -3
v -2 3 1
v -1 3 1
v -2 3 -0
v -1 3 -0
v -3 3 -3
v -2 3 -3
v -3 3 -4
v -2 3 -4
v -1 4 3
v 0 4 3
v -1 4 2
v 0 4 2
v 1 5 -1
v 2 5 -1
v -3 5 -2
v -2 5 -2
v 1 5 -2
v 2 5 -2
v -3 5 -3
v -2 5 -3
v 2 6 2
v 3 6 2
v -4 6 1
v -3 6 1
v 2 6 1
v 3 6 1
v -4 6 -0
v -3 6 -0
v 1 7 -2
v 2 7 -2
v 1 7 -3
v 2 7 -3
v 3 8 2
v 4 8 2
v 3 8 1
v 4 8 1
v -4 8 -0
v -3 8 -0
v -4 8 -1
v -3 8 -1
v -3 8 -3
v -2 8 -3
v -3 8 -4
v -2 8 -4
v -1 9 4
v 0 9 4
v -1 9 3
v 0 9 3

# faces
f 3/1/1 2/1/1 1/1/1
f 4/1/1 2/1/1 3/1/1
f 5/2/1 4/2/1 3/2/1
f 7/2/1 5/2/1 3/2/1
f 8/3/1 6/3/1 5/3/1
f 8/2/1 5/2/1 7/2/1
f 9/3/1 6/3/1 8/3/1
f 10/3/1 6/3/1 9/3/1
f 15/1/1 12/1/1 11/1/1
f 16/1/1 12/1/1 15/1/1
f 17/1/1 14/1/1 13/1/1
f 19/1/1 17/1/1 13/1/1
f 19/1/1 18/1/1 17/1/1
f 20/1/1 18/1/1 19/1/1
f 21/1/1 19/1/1 13/1/1
f 23/1/1 21/1/1 13/1/1
f 24/2/1 22/2/1 21/2/1
f 24/1/1 21/1/1 23/1/1
f 25/2/1 22/2/1 24/2/1
f 26/2/1 22/2/1 25/2/1
f 30/1/1 28/1/1 27/1/1
f 31/1/1 28/1/1 30/1/1
f 32/1/1 30/1/1 29/1/1
f 33/1/1 30/1/1 32/1/1
f 36/1/1 35/1/1 34/1/1
f 37/1/1 35/1/1 36/1/1
f 39/1/1 35/1/1 37/1/1
f 40/1/1 35/1/1 39/1/1
f 40/2/1 39/2/1 38/2/1
f 41/1/1 35/1/1 40/1/1
f 42/2/1 40/2/1 38/2/1
f 43/2/1 40/2/1 42/2/1
f 44/3/1 43/3/1 42/3/1
f 45/3/1 43/3/1 44/3/1
f 48/1/1 47/1/1 46/1/1
f 49/1/1 47/1/1 48/1/1
f 54/1/1 51/1/1 50/1/1
f 55/1/1 51/1/1 54/1/1
f 56/1/1 53/1/1 52/1/1
f 57/1/1 53/1/1 56/1/1
f 58/2/1 57/2/1 56/2/1
f 60/2/1 58/2/1 56/2/1
f 61/3/1 59/3/1 58/3/1
f 61/2/1 58/2/1 60/2/1
f 62/3/1 59/3/1 61/3/1
f 63/3/1 59/3/1 62/3/1
f 69/1/1 65/1/1 64/1/1
f 70/1/1 65/1/1 69/1/1
f 71/1/1 67/1/1 66/1/1
f 72/1/1 67/1/1 71/1/1
f 73/1/1 69/1/1 68/1/1
f 74/1/1 69/1/1 73/1/1
f 75/2/1 74/2/1 73/2/1
f 76/2/1 74/2/1 75/2/1
f 79/1/1 78/1/1 77/1/1
f 80/1/1 78/1/1 79/1/1
f 83/3/1 82/3/1 81/3/1
f 84/3/1 82/3/1 83/3/1
f 85/1/2 86/1/2 87/1/2
f 87/1/2 86/1/2 88/1/2
f 87/2/2 88/2/2 89/2/2
f 87/2/2 89/2/2 91/2/2
f 89/3/2 90/3/2 92/3/2
f 91/2/2 89/2/2 92/2/2
f 92/3/2 90/3/2 93/3/2
f 93/3/2 90/3/2 94/3/2
f 95/1/2 96/1/2 97/1/2
f 97/1/2 96/1/2 98/1/2
f 99/1/2 100/1/2 101/1/2
f 99/1/2 101/1/2 103/1/2
f 101/1/2 102/1/2 103/1/2
f 103/1/2 102/1/2 104/1/2
f 99/1/2 103/1/2 105/1/2
f 99/1/2 105/1/2 107/1/2
f 105/2/2 106/2/2 108/2/2
f 107/1/2 105/1/2 108/1/2
f 108/2/2 106/2/2 109/2/2
f 109/2/2 106/2/2 110/2/2
f 111/1/2 112/1/2 116/1/2
f 116/1/2 112/1/2 117/1/2
f 113/1/2 114/1/2 118/1/2
f 118/1/2 114/1/2 119/1/2
f 115/1/2 116/1/2 120/1/2
f 120/1/2 116/1/2 121/1/2
f 122/1/2 123/1/2 126/1/2
f 126/1/2 123/1/2 127/1/2
f 124/1/2 125/1/2 128/1/2
f 128/1/2 125/1/2 129/1/2
f 127/1/2 123/1/2 131/1/2
f 131/1/2 123/1/2 132/1/2
f 130/2/2 131/2/2 132/2/2
f 132/1/2 123/1/2 133/1/2
f 130/2/2 132/2/2 134/2/2
f 134/2/2 132/2/2 135/2/2
f 134/3/2 135/3/2 136/3/2
f 136/3/2 135/3/2 137/3/2
f 138/1/2 139/1/2 140/1/2
f 140/1/2 139/1/2 141/1/2
f 142/1/2 143/1/2 144/1/2
f 142/1/2 144/1/2 145/1/2
f 145/1/2 144/1/2 146/1/2
f 145/2/2 146/2/2 147/2/2
f 145/2/2 147/2/2 149/2/2
f 147/3/2 148/3/2 150/3/2
f 149/2/2 147/2/2 150/2/2
f 150/3/2 148/3/2 151/3/2
f 151/3/2 148/3/2 152/3/2
f 153/1/2 154/1/2 157/1/2
f 157/1/2 154/1/2 158/1/2
f 155/1/2 156/1/2 159/1/2
f 159/1/2 156/1/2 160/1/2
f 153/1/2 157/1/2 161/1/2
f 161/1/2 157/1/2 162/1/2
f 161/2/2 162/2/2 163/2/2
f 163/2/2 162/2/2 164/2/2
f 165/1/2 166/1/2 167/1/2
f 167/1/2 166/1/2 168/1/2
f 169/3/2 170/3/2 171/3/2
f 171/3/2 170/3/2 172/3/2
f 178/1/3 174/1/3 173/1/3
f 179/1/3 174/1/3 178/1/3
f 180/2/3 176/2/3 175/2/3
f 181/3/3 177/3/3 176/3/3
f 181/2/3 176/2/3 180/2/3
f 182/3/3 177/3/3 181/3/3
f 185/1/3 184/1/3 183/1/3
f 186/1/3 184/1/3 185/1/3
f 189/1/3 188/1/3 187/1/3
f 190/1/3 188/1/3 189/1/3
f 193/1/3 192/1/3 191/1/3
f 196/1/3 193/1/3 191/1/3
f 196/1/3 194/1/3 193/1/3
f 197/2/3 195/2/3 194/2/3
f 197/1/3 194/1/3 196/1/3
f 198/2/3 195/2/3 197/2/3
f 199/2/3 195/2/3 198/2/3
f 201/3/3 200/3/3 199/3/3
f 201/3/3 199/3/3 198/3/3
f 202/3/3 200/3/3 201/3/3
f 206/1/3 204/1/3 203/1/3
f 207/2/3 205/2/3 204/2/3
f 207/1/3 204/1/3 206/1/3
f 208/2/3 205/2/3 207/2/3
f 209/1/3 206/1/3 203/1/3
f 211/1/3 209/1/3 203/1/3
f 211/1/3 210/1/3 209/1/3
f 212/1/3 210/1/3 211/1/3
f 213/1/3 211/1/3 203/1/3
f 214/1/3 211/1/3 213/1/3
f 217/3/3 216/3/3 215/3/3
f 218/3/3 216/3/3 217/3/3
f 221/1/3 220/1/3 219/1/3
f 222/1/3 220/1/3 221/1/3
f 226/1/3 224/1/3 223/1/3
f 227/2/3 225/2/3 224/2/3
f 227/1/3 224/1/3 226/1/3
f 228/2/3 225/2/3 227/2/3
f 231/1/3 230/1/3 229/1/3
f 232/1/3 230/1/3 231/1/3
f 233/1/3 231/1/3 229/1/3
f 234/1/3 231/1/3 233/1/3
f 237/1/3 236/1/3 235/1/3
f 238/1/3 236/1/3 237/1/3
f 243/3/3 240/3/3 239/3/3
f 244/3/3 240/3/3 243/3/3
f 245/1/3 242/1/3 241/1/3
f 246/1/3 242/1/3 245/1/3
f 249/2/3 248/2/3 247/2/3
f 250/2/3 248/2/3 249/2/3
f 251/2/4 252/2/4 254/2/4
f 252/3/4 253/3/4 255/3/4
f 254/2/4 252/2/4 255/2/4
f 255/3/4 253/3/4 256/3/4
f 257/1/4 258/1/4 259/1/4
f 259/1/4 258/1/4 260/1/4
f 261/1/4 262/1/4 263/1/4
f 263/1/4 262/1/4 264/1/4
f 265/1/4 266/1/4 267/1/4
f 267/1/4 266/1/4 268/1/4
f 268/1/4 269/1/4 271/1/4
f 269/2/4 270/2/4 272/2/4
f 271/1/4 269/1/4 272/1/4
f 272/2/4 270/2/4 273/2/4
f 273/2/4 270/2/4 274/2/4
f 274/3/4 275/3/4 276/3/4
f 273/3/4 274/3/4 276/3/4
f 276/3/4 275/3/4 277/3/4
f 278/1/4 279/1/4 281/1/4
f 279/2/4 280/2/4 282/2/4
f 281/1/4 279/1/4 282/1/4
f 282/2/4 280/2/4 283/2/4
f 278/1/4 281/1/4 284/1/4
f 284/1/4 281/1/4 285/1/4
f 285/1/4 286/1/4 288/1/4
f 288/1/4 286/1/4 289/1/4
f 287/1/4 288/1/4 290/1/4
f 290/1/4 288/1/4 291/1/4
f 292/1/4 293/1/4 294/1/4
f 294/1/4 293/1/4 295/1/4
f 296/3/4 297/3/4 298/3/4
f 298/3/4 297/3/4 299/3/4
f 300/1/4 301/1/4 302/1/4
f 302/1/4 301/1/4 303/1/4
f 304/1/4 305/1/4 306/1/4
f 306/1/4 305/1/4 307/1/4
f 308/1/4 309/1/4 311/1/4
f 311/1/4 309/1/4 312/1/4
f 309/2/4 310/2/4 313/2/4
f 312/1/4 309/1/4 313/1/4
f 313/2/4 310/2/4 314/2/4
f 315/1/4 316/1/4 319/1/4
f 319/1/4 316/1/4 320/1/4
f 317/1/4 318/1/4 321/1/4
f 321/1/4 318/1/4 322/1/4
f 315/1/4 319/1/4 323/1/4
f 323/1/4 319/1/4 324/1/4
f 325/1/4 326/1/4 327/1/4
f 327/1/4 326/1/4 328/1/4
f 329/3/4 330/3/4 333/3/4
f 333/3/4 330/3/4 334/3/4
f 331/1/4 332/1/4 335/1/4
f 335/1/4 332/1/4 336/1/4
f 337/1/4 338/1/4 341/1/4
f 341/1/4 338/1/4 342/1/4
f 339/2/4 340/2/4 343/2/4
f 343/2/4 340/2/4 344/2/4
f 349/1/5 348/1/5 347/1/5
f 350/1/5 348/1/5 349/1/5
f 351/1/5 346/1/5 345/1/5
f 352/1/5 346/1/5 351/1/5
f 357/1/5 354/1/5 353/1/5
f 358/1/5 354/1/5 357/1/5
f 359/1/5 356/1/5 355/1/5
f 360/1/5 356/1/5 359/1/5
f 361/1/5 356/1/5 360/1/5
f 362/1/5 356/1/5 361/1/5
f 363/1/5 354/1/5 358/1/5
f 364/1/5 354/1/5 363/1/5
f 366/1/5 361/1/5 360/1/5
f 367/1/5 361/1/5 366/1/5
f 370/1/5 365/1/5 364/1/5
f 371/1/5 365/1/5 370/1/5
f 375/1/5 369/1/5 368/1/5
f 376/1/5 369/1/5 375/1/5
f 378/1/5 373/1/5 372/1/5
f 379/1/5 373/1/5 378/1/5
f 380/1/5 375/1/5 374/1/5
f 381/1/5 375/1/5 380/1/5
f 382/1/5 377/1/5 376/1/5
f 383/1/5 377/1/5 382/1/5
f 386/1/5 385/1/5 384/1/5
f 387/1/5 385/1/5 386/1/5
f 390/2/5 389/2/5 388/2/5
f 391/2/5 389/2/5 390/2/5
f 396/3/5 393/3/5 392/3/5
f 397/3/5 393/3/5 396/3/5
f 398/2/5 395/2/5 394/2/5
f 399/2/5 395/2/5 398/2/5
f 402/3/5 401/3/5 400/3/5
f 403/3/5 401/3/5 402/3/5
f 406/3/5 405/3/5 404/3/5
f 407/3/5 405/3/5 406/3/5
f 408/1/6 409/1/6 412/1/6
f 412/1/6 409/1/6 413/1/6
f 410/1/6 411/1/6 414/1/6
f 414/1/6 411/1/6 415/1/6
f 416/1/6 417/1/6 422/1/6
f 422/1/6 417/1/6 423/1/6
f 418/1/6 419/1/6 425/1/6
f 425/1/6 419/1/6 426/1/6
f 420/1/6 421/1/6 427/1/6
f 427/1/6 421/1/6 428/1/6
f 423/1/6 424/1/6 429/1/6
f 429/1/6 424/1/6 430/1/6
f 426/1/6 427/1/6 432/1/6
f 432/1/6 427/1/6 433/1/6
f 430/1/6 431/1/6 434/1/6
f 434/1/6 431/1/6 435/1/6
f 436/1/6 437/1/6 440/1/6
f 440/1/6 437/1/6 441/1/6
f 438/1/6 439/1/6 442/1/6
f 442/1/6 439/1/6 443/1/6
f 444/1/6 445/1/6 446/1/6
f 446/1/6 445/1/6 447/1/6
f 448/1/6 449/1/6 450/1/6
f 450/1/6 449/1/6 451/1/6
f 452/1/6 453/1/6 454/1/6
f 454/1/6 453/1/6 455/1/6
f 456/1/6 457/1/6 458/1/6
f 458/1/6 457/1/6 459/1/6
f 460/2/6 461/2/6 464/2/6
f 464/2/6 461/2/6 465/2/6
f 462/1/6 463/1/6 466/1/6
f 466/1/6 463/1/6 467/1/6
f 468/2/6 469/2/6 472/2/6
f 472/2/6 469/2/6 473/2/6
f 470/2/6 471/2/6 474/2/6
f 474/2/6 471/2/6 475/2/6
f 476/3/6 477/3/6 478/3/6
f 478/3/6 477/3/6 479/3/6
f 480/3/6 481/3/6 482/3/6
f 482/3/6 481/3/6 483/3/6
f 484/3/6 485/3/6 486/3/6
f 486/3/6 485/3/6 487/3/6
f 488/2/6 489/2/6 490/2/6
f 490/2/6 489/2/6 491/2/6
f 492/3/6 493/3/6 494/3/6
f 494/3/6 493/3/6 495/3/6
