# MagicaVoxel @ Ephtracy

# material
mtllib Support2.mtl
usemtl palette

# normals
vn -1 0 0
vn 1 0 0
vn 0 0 1
vn 0 0 -1
vn 0 -1 0
vn 0 1 0

# texcoords
vt 0.369141 0.5
vt 0.373047 0.5
vt 0.537109 0.5
vt 0.966797 0.5

# verts
v -2.5 1 -3
v -2.5 1 -4
v -2.5 5 4
v -2.5 5 -1
v -2.5 6 4
v -2.5 6 -1
v -2.5 7 -3
v -2.5 7 -4
v -1.5 0 -3
v -1.5 0 -4
v -1.5 1 -3
v -1.5 1 -4
v -1.5 7 -3
v -1.5 7 -4
v -1.5 8 -3
v -1.5 8 -4
v -0.5 5 -1
v -0.5 5 -3
v -0.5 6 -1
v -0.5 6 -3
v 1.5 5 3
v 1.5 5 -0
v 1.5 6 3
v 1.5 6 -0
v -1.5 5 3
v -1.5 5 -0
v -1.5 6 3
v -1.5 6 -0
v 0.5 5 -1
v 0.5 5 -3
v 0.5 6 -1
v 0.5 6 -3
v 1.5 0 -3
v 1.5 0 -4
v 1.5 1 -3
v 1.5 1 -4
v 1.5 7 -3
v 1.5 7 -4
v 1.5 8 -3
v 1.5 8 -4
v 2.5 1 -3
v 2.5 1 -4
v 2.5 5 4
v 2.5 5 -1
v 2.5 6 4
v 2.5 6 -1
v 2.5 7 -3
v 2.5 7 -4
v -2.5 5 4
v -2.5 6 4
v 2.5 5 4
v 2.5 6 4
v -1.5 5 -0
v -1.5 6 -0
v 1.5 5 -0
v 1.5 6 -0
v -2.5 1 -3
v -2.5 7 -3
v -1.5 0 -3
v -1.5 1 -3
v -1.5 7 -3
v -1.5 8 -3
v -0.5 1 -3
v -0.5 2 -3
v -0.5 5 -3
v -0.5 6 -3
v -0.5 7 -3
v 0.5 1 -3
v 0.5 2 -3
v 0.5 5 -3
v 0.5 6 -3
v 0.5 7 -3
v 1.5 0 -3
v 1.5 1 -3
v 1.5 7 -3
v 1.5 8 -3
v 2.5 1 -3
v 2.5 7 -3
v -1.5 5 3
v -1.5 6 3
v 1.5 5 3
v 1.5 6 3
v -2.5 5 -1
v -2.5 6 -1
v -0.5 5 -1
v -0.5 6 -1
v 0.5 5 -1
v 0.5 6 -1
v 2.5 5 -1
v 2.5 6 -1
v -2.5 1 -4
v -2.5 7 -4
v -1.5 0 -4
v -1.5 1 -4
v -1.5 7 -4
v -1.5 8 -4
v -0.5 1 -4
v -0.5 2 -4
v -0.5 5 -4
v -0.5 6 -4
v -0.5 7 -4
v 0.5 1 -4
v 0.5 2 -4
v 0.5 5 -4
v 0.5 6 -4
v 0.5 7 -4
v 1.5 0 -4
v 1.5 1 -4
v 1.5 7 -4
v 1.5 8 -4
v 2.5 1 -4
v 2.5 7 -4
v -1.5 0 -3
v 1.5 0 -3
v -1.5 0 -4
v 1.5 0 -4
v -2.5 1 -3
v -1.5 1 -3
v 1.5 1 -3
v 2.5 1 -3
v -2.5 1 -4
v -1.5 1 -4
v 1.5 1 -4
v 2.5 1 -4
v -2.5 5 4
v 2.5 5 4
v -1.5 5 3
v 1.5 5 3
v -1.5 5 -0
v 1.5 5 -0
v -2.5 5 -1
v -0.5 5 -1
v 0.5 5 -1
v 2.5 5 -1
v -0.5 5 -3
v 0.5 5 -3
v -2.5 6 4
v 2.5 6 4
v -1.5 6 3
v 1.5 6 3
v -1.5 6 -0
v 1.5 6 -0
v -2.5 6 -1
v -0.5 6 -1
v 0.5 6 -1
v 2.5 6 -1
v -0.5 6 -3
v 0.5 6 -3
v -2.5 7 -3
v -1.5 7 -3
v 1.5 7 -3
v 2.5 7 -3
v -2.5 7 -4
v -1.5 7 -4
v 1.5 7 -4
v 2.5 7 -4
v -1.5 8 -3
v 1.5 8 -3
v -1.5 8 -4
v 1.5 8 -4

# faces
f 5/3/1 4/3/1 3/3/1
f 6/3/1 4/3/1 5/3/1
f 7/1/1 2/1/1 1/1/1
f 8/1/1 2/1/1 7/1/1
f 11/1/1 10/1/1 9/1/1
f 12/1/1 10/1/1 11/1/1
f 15/1/1 14/1/1 13/1/1
f 16/1/1 14/1/1 15/1/1
f 19/1/1 18/1/1 17/1/1
f 20/1/1 18/1/1 19/1/1
f 23/3/1 22/3/1 21/3/1
f 24/3/1 22/3/1 23/3/1
f 25/3/2 26/3/2 27/3/2
f 27/3/2 26/3/2 28/3/2
f 29/1/2 30/1/2 31/1/2
f 31/1/2 30/1/2 32/1/2
f 33/1/2 34/1/2 35/1/2
f 35/1/2 34/1/2 36/1/2
f 37/1/2 38/1/2 39/1/2
f 39/1/2 38/1/2 40/1/2
f 43/3/2 44/3/2 45/3/2
f 45/3/2 44/3/2 46/3/2
f 41/1/2 42/1/2 47/1/2
f 47/1/2 42/1/2 48/1/2
f 51/3/3 50/3/3 49/3/3
f 52/3/3 50/3/3 51/3/3
f 55/3/3 54/3/3 53/3/3
f 56/3/3 54/3/3 55/3/3
f 60/1/3 58/1/3 57/1/3
f 61/1/3 58/1/3 60/1/3
f 63/1/3 60/1/3 59/1/3
f 63/1/3 62/1/3 61/1/3
f 63/1/3 61/1/3 60/1/3
f 64/1/3 62/1/3 63/1/3
f 65/1/3 62/1/3 64/1/3
f 66/1/3 62/1/3 65/1/3
f 67/1/3 62/1/3 66/1/3
f 68/1/3 63/1/3 59/1/3
f 68/4/3 64/4/3 63/4/3
f 69/1/3 65/1/3 64/1/3
f 69/4/3 64/4/3 68/4/3
f 70/1/3 65/1/3 69/1/3
f 71/4/3 67/4/3 66/4/3
f 72/1/3 62/1/3 67/1/3
f 72/4/3 67/4/3 71/4/3
f 73/1/3 71/1/3 70/1/3
f 73/1/3 70/1/3 69/1/3
f 73/1/3 72/1/3 71/1/3
f 73/1/3 68/1/3 59/1/3
f 73/1/3 69/1/3 68/1/3
f 74/1/3 72/1/3 73/1/3
f 75/1/3 62/1/3 72/1/3
f 75/1/3 72/1/3 74/1/3
f 76/1/3 62/1/3 75/1/3
f 77/1/3 75/1/3 74/1/3
f 78/1/3 75/1/3 77/1/3
f 79/3/4 80/3/4 81/3/4
f 81/3/4 80/3/4 82/3/4
f 83/3/4 84/3/4 85/3/4
f 85/3/4 84/3/4 86/3/4
f 87/3/4 88/3/4 89/3/4
f 89/3/4 88/3/4 90/3/4
f 91/1/4 92/1/4 94/1/4
f 94/1/4 92/1/4 95/1/4
f 93/1/4 94/1/4 97/1/4
f 95/1/4 96/1/4 97/1/4
f 94/1/4 95/1/4 97/1/4
f 97/1/4 96/1/4 98/1/4
f 98/1/4 96/1/4 99/1/4
f 99/1/4 96/1/4 100/1/4
f 100/1/4 96/1/4 101/1/4
f 93/1/4 97/1/4 102/1/4
f 97/4/4 98/4/4 102/4/4
f 98/1/4 99/1/4 103/1/4
f 102/4/4 98/4/4 103/4/4
f 99/2/4 100/2/4 104/2/4
f 103/1/4 99/1/4 104/1/4
f 100/4/4 101/4/4 105/4/4
f 104/2/4 100/2/4 105/2/4
f 101/1/4 96/1/4 106/1/4
f 105/4/4 101/4/4 106/4/4
f 104/1/4 105/1/4 107/1/4
f 103/1/4 104/1/4 107/1/4
f 105/1/4 106/1/4 107/1/4
f 102/1/4 103/1/4 107/1/4
f 93/1/4 102/1/4 107/1/4
f 107/1/4 106/1/4 108/1/4
f 106/1/4 96/1/4 109/1/4
f 108/1/4 106/1/4 109/1/4
f 109/1/4 96/1/4 110/1/4
f 108/1/4 109/1/4 111/1/4
f 111/1/4 109/1/4 112/1/4
f 115/1/5 114/1/5 113/1/5
f 116/1/5 114/1/5 115/1/5
f 121/1/5 118/1/5 117/1/5
f 122/1/5 118/1/5 121/1/5
f 123/1/5 120/1/5 119/1/5
f 124/1/5 120/1/5 123/1/5
f 127/3/5 126/3/5 125/3/5
f 128/3/5 126/3/5 127/3/5
f 129/3/5 127/3/5 125/3/5
f 130/3/5 126/3/5 128/3/5
f 131/3/5 129/3/5 125/3/5
f 131/3/5 130/3/5 129/3/5
f 132/3/5 130/3/5 131/3/5
f 133/3/5 130/3/5 132/3/5
f 134/3/5 126/3/5 130/3/5
f 134/3/5 130/3/5 133/3/5
f 135/1/5 133/1/5 132/1/5
f 136/1/5 133/1/5 135/1/5
f 137/3/6 138/3/6 139/3/6
f 139/3/6 138/3/6 140/3/6
f 137/3/6 139/3/6 141/3/6
f 140/3/6 138/3/6 142/3/6
f 137/3/6 141/3/6 143/3/6
f 141/3/6 142/3/6 143/3/6
f 143/3/6 142/3/6 144/3/6
f 144/3/6 142/3/6 145/3/6
f 142/3/6 138/3/6 146/3/6
f 145/3/6 142/3/6 146/3/6
f 144/1/6 145/1/6 147/1/6
f 147/1/6 145/1/6 148/1/6
f 149/1/6 150/1/6 153/1/6
f 153/1/6 150/1/6 154/1/6
f 151/1/6 152/1/6 155/1/6
f 155/1/6 152/1/6 156/1/6
f 157/1/6 158/1/6 159/1/6
f 159/1/6 158/1/6 160/1/6
